<svg width="16" height="17" viewBox="0 0 16 17" fill="none" xmlns="http://www.w3.org/2000/svg">
<path d="M14.9854 2.91996H13.9863V3.89996C13.9863 4.91059 13.7444 5.84465 13.2605 6.70215C12.7766 7.55965 12.1236 8.25892 11.3015 8.79996C12.1236 9.341 12.7766 10.0428 13.2605 10.9054C13.7444 11.768 13.9863 12.6995 13.9863 13.7V14.68H14.9854C15.2559 14.68 15.4901 14.7744 15.6878 14.9632C15.8855 15.1521 15.9844 15.3843 15.9844 15.66C15.9844 15.9356 15.8855 16.1678 15.6878 16.3567C15.4901 16.5455 15.2559 16.64 14.9854 16.64H0.999024C0.728455 16.64 0.494309 16.5455 0.296585 16.3567C0.0988618 16.1678 0 15.9381 0 15.6676C0 15.3971 0.0988618 15.1649 0.296585 14.9709C0.494309 14.7769 0.728455 14.68 0.999024 14.68H1.99805V13.7C1.99805 12.6995 2.24 11.768 2.7239 10.9054C3.2078 10.0428 3.86081 9.341 4.68293 8.79996C3.86081 8.25892 3.2078 7.55965 2.7239 6.70215C2.24 5.84465 1.99805 4.91059 1.99805 3.89996V2.91996H0.999024C0.728455 2.91996 0.494309 2.82553 0.296585 2.63668C0.0988618 2.44783 0 2.21559 0 1.93996C0 1.66434 0.0988618 1.4321 0.296585 1.24324C0.494309 1.05439 0.728455 0.959961 0.999024 0.959961H14.9854C15.2559 0.959961 15.4901 1.05439 15.6878 1.24324C15.8855 1.4321 15.9844 1.66434 15.9844 1.93996C15.9844 2.21559 15.8855 2.44783 15.6878 2.63668C15.4901 2.82553 15.2559 2.91996 14.9854 2.91996ZM8.99122 9.90246V12.8425L11.9883 14.68V13.7C11.9883 12.8016 11.7073 12.0003 11.1454 11.2959C10.5834 10.5915 9.86537 10.127 8.99122 9.90246ZM3.9961 13.7V14.68L6.99317 12.8425V9.90246C6.11902 10.127 5.40098 10.5915 4.83902 11.2959C4.27707 12.0003 3.9961 12.8016 3.9961 13.7ZM11.9883 2.91996H3.9961V3.89996C3.9961 4.59413 4.17821 5.24746 4.54244 5.85996H11.442C11.8062 5.24746 11.9883 4.59413 11.9883 3.89996V2.91996Z" fill="#EB6262"/>
</svg>
